# xmcd
#
# Track frame offsets: 
#        150
#        18486
#        42110
#        56015
#        70220
#        109987
#        125829
#        139278
#        153393
#        171538
#        185111
#        217957
#        230466
#        244999
#        277855
#
# Disc length: 3958 seconds
#
# Revision: 0
# Processed by: cddbd v1.5.2PL0 Copyright (c) Steve Scherf et al.
# Submitted via: ExactAudioCopy v0.95b3
#
DISCID=e60f740f
DTITLE=Sly and The Family Stone  - There's A Riot Going On (2007 Remaste
DTITLE=r)  FLAC
DYEAR=1900
DGENRE=
TTITLE0=Luv N' Haight
TTITLE1=Just Like A Baby
TTITLE2=Poet
TTITLE3=Family Affair
TTITLE4=Africa Talks To You ('The Asphalt Jungle')
TTITLE5=Brave and Strong
TTITLE6=(You Caught Me) Smilin
TTITLE7=Time
TTITLE8=Spaced Cowboy
TTITLE9=Runnin' Away
TTITLE10=Thank You For Talkin' To Me, Africa
TTITLE11=Runnin' Away
TTITLE12=My Gorilla Is My Butler
TTITLE13=Do You Know What
TTITLE14=That's Pretty Clean
EXTD=
EXTT0=
EXTT1=
EXTT2=
EXTT3=
EXTT4=
EXTT5=
EXTT6=
EXTT7=
EXTT8=
EXTT9=
EXTT10=
EXTT11=
EXTT12=
EXTT13=
EXTT14=
PLAYORDER=
